<svg xmlns="http://www.w3.org/2000/svg" width="23" height="21" viewBox="0 0 23 21" fill="none">
  <path fill-rule="evenodd" clip-rule="evenodd" d="M22.9558 2.50468C23.2867 0.890769 21.7019 -0.450423 20.1655 0.143344L1.33188 7.42161C-0.38392 8.08468 -0.460372 10.4845 1.20973 11.2555L5.31116 13.1489L7.26227 19.9793C7.36361 20.3341 7.64509 20.6088 8.00219 20.7014C8.3593 20.7938 8.73871 20.6905 8.99956 20.4296L12.005 17.4234L16.2151 20.5817C17.4372 21.4984 19.1974 20.8307 19.5043 19.3339L22.9558 2.50468ZM2.08234 9.36441L20.9159 2.08616L17.4645 18.9155L12.5321 15.2152C12.1176 14.9043 11.5376 14.9455 11.1712 15.312L9.88389 16.5995L10.2707 14.4719L17.8493 6.89156C18.2182 6.52265 18.2571 5.93768 17.9405 5.52308C17.6239 5.10846 17.0495 4.99217 16.5966 5.25101L6.13027 11.2331L2.08234 9.36441ZM7.40642 12.9025L8.03776 15.1128L8.28015 13.7793C8.31804 13.5709 8.41856 13.379 8.56831 13.2292L10.8795 10.9175L7.40642 12.9025Z" fill="#5671A6"/>
</svg>