<svg xmlns="http://www.w3.org/2000/svg" width="25" height="18" viewBox="0 0 25 18" fill="none">
  <path d="M21.516 11.4453C22.3453 12.4754 23.2205 13.4446 23.9643 14.5786C24.2929 15.0825 24.6039 15.6025 24.8419 16.1873C25.1791 17.0186 24.8737 17.9335 24.2878 17.9831L20.6457 17.981C19.7064 18.0802 18.957 17.5991 18.3269 16.7819C17.8227 16.1284 17.3557 15.4329 16.8708 14.7574C16.6721 14.4813 16.464 14.2215 16.2155 14.0162C15.7183 13.6056 15.2867 13.7313 15.0026 14.391C14.7132 15.0621 14.6476 15.8051 14.6191 16.5529C14.5801 17.644 14.3209 17.9309 13.4594 17.9809C11.6184 18.0913 9.87111 17.737 8.24792 16.5553C6.81687 15.5136 5.7072 14.043 4.74129 12.3781C2.86077 9.13635 1.42059 5.57403 0.12626 1.91198C-0.165097 1.08692 0.0479888 0.644036 0.763514 0.628318C1.95165 0.598934 3.13963 0.601047 4.32918 0.626207C4.81209 0.635214 5.13176 0.987581 5.31824 1.568C5.96106 3.579 6.74763 5.49229 7.73493 7.26573C7.99787 7.73787 8.26598 8.21008 8.64772 8.54237C9.07008 8.91033 9.39166 8.78838 9.59035 8.18976C9.71642 7.81019 9.77164 7.40135 9.80006 6.99487C9.8942 5.59629 9.9066 4.20005 9.74152 2.80637C9.64015 1.93658 9.25509 1.37349 8.57292 1.20893C8.22482 1.125 8.27663 0.960182 8.44518 0.707402C8.73791 0.27142 9.01325 0 9.56212 0H13.6782C14.3262 0.162701 14.4701 0.533086 14.5588 1.36262L14.5624 7.17969C14.5553 7.50081 14.6884 8.45385 15.1431 8.66637C15.5069 8.81771 15.7468 8.44732 15.9651 8.15379C16.9506 6.82305 17.654 5.25031 18.2824 3.62181C18.5612 2.90571 18.801 2.16209 19.0334 1.41903C19.2056 0.867682 19.4757 0.596387 19.9639 0.608377L23.9254 0.61285C24.0428 0.61285 24.1617 0.615024 24.2755 0.639812C24.943 0.784559 25.1259 1.14991 24.9198 1.97926C24.5949 3.28044 23.9628 4.36481 23.3448 5.45415C22.6842 6.61716 21.9776 7.74042 21.3224 8.91033C20.7205 9.97886 20.7683 10.5173 21.516 11.4453Z" fill="#5671A6"/>
</svg>